<?xml version="1.0" encoding="UTF-8"?>
<svg width="10px" height="14px" viewBox="0 0 10 14" version="1.1" xmlns="http://www.w3.org/2000/svg" xmlns:xlink="http://www.w3.org/1999/xlink">
    <title>F2A5C050-426C-46B3-B7D9-E2E0818BD85E</title>
    <g id="Page-1" stroke="none" stroke-width="1" fill="none" fill-rule="evenodd">
        <g id="dashboard" transform="translate(-903.000000, -347.000000)" fill="#EB714A">
            <g id="Group-24" transform="translate(264.000000, 80.000000)">
                <g id="Group-14" transform="translate(640.000000, 237.000000)">
                    <g id="charged-2" transform="translate(0.000000, 30.000000)">
                        <path d="M4.76327363,8.71879926 L7.84023689,12.3539246 C8.19705445,12.775469 8.14458299,13.4064561 7.72303861,13.7632736 C7.54246281,13.9161226 7.31354394,14 7.07696325,14 L0.923036747,14 C0.370751997,14 -0.0769632529,13.5522847 -0.0769632529,13 C-0.0769632529,12.7634193 0.00691416411,12.5345004 0.159763114,12.3539246 L3.23672637,8.71879926 C3.59354393,8.29725487 4.22453097,8.24478341 4.64607535,8.60160098 C4.68831719,8.63735671 4.7275179,8.67655742 4.76327363,8.71879926 Z M4.76327363,0.474889305 L7.84023689,4.1100147 C8.19705445,4.53155908 8.14458299,5.16254612 7.72303861,5.51936368 C7.54246281,5.67221263 7.31354394,5.75609005 7.07696325,5.75609005 L0.923036747,5.75609005 C0.370751997,5.75609005 -0.0769632529,5.3083748 -0.0769632529,4.75609005 C-0.0769632529,4.51950936 0.00691416411,4.2905905 0.159763114,4.1100147 L3.23672637,0.474889305 C3.59354393,0.053344918 4.22453097,0.000873460771 4.64607535,0.357691025 C4.68831719,0.393446762 4.7275179,0.432647466 4.76327363,0.474889305 Z" id="charged" transform="translate(4.000000, 7.000000) scale(1, -1) translate(-4.000000, -7.000000) "></path>
                    </g>
                </g>
            </g>
        </g>
    </g>
</svg>