<svg fill="#5D8F54" xmlns="http://www.w3.org/2000/svg" xmlns:xlink="http://www.w3.org/1999/xlink" width="32.66667206118768" height="33" version="1.1" style=""><rect id="backgroundrect" width="100%" height="100%" x="0" y="0" fill="none" stroke="none" class="selected" style=""/>
    <title>C5EFF904-2BB5-4DC1-86C0-C64A40174109</title>
    
<g class="currentLayer" style=""><title>Layer 1</title>
        
            
                <path d="M29.74783,0C30.64245,0 31.47629,0.4542 31.96185,1.20678C32.44771,1.95907 32.51905,2.90674 32.1515,3.72355L32.1515,3.72355L26.40254,16.49994L32.1515,29.27633C32.51905,30.09314 32.44771,31.04081 31.96185,31.79322C31.47629,32.54562 30.64245,33 29.74783,33L29.74783,33L5.94799,33C4.37049,33 2.85759,32.37259 1.74213,31.25574C0.80299,30.31545 0.21036,29.09311 0.04705,27.78789C0.01629,27.65992 0,27.52625 0,27.38882L0,27.38882L0,5.95514C0,4.37571 0.62665,2.86096 1.74213,1.74417C2.85759,0.6272 4.37049,0 5.94799,0L5.94799,0zM24.5394,20.64062L23.91762,22.02251C23.28698,23.42404 21.92741,24.34699 20.40564,24.4246L20.19717,24.4299L20.19717,24.4299L6.35276,24.4299C5.59347,24.4299 4.86436,24.72244 4.31555,25.24524C4.29791,25.26205 4.28036,25.27917 4.26303,25.29656L4.25086,25.3088L4.23879,25.3211L4.21486,25.3459L4.20303,25.35841L4.19126,25.37098L4.16799,25.39627L4.15646,25.40901L4.14502,25.42179L4.13364,25.43466L4.10005,25.4736L4.09466,25.47996L4.089,25.48668L4.08364,25.4931L4.07804,25.49982L4.07272,25.5063L4.06718,25.51303L4.06185,25.51957L4.0564,25.52629L4.05107,25.53289L4.04568,25.53958L4.04039,25.54627L4.02976,25.55968L4.01922,25.57315L4.00878,25.58672L3.99842,25.60031L3.98816,25.61396L3.97795,25.62765L3.93798,25.68301L3.92819,25.69697L3.9185,25.71101L3.91684,25.71342L3.87295,25.77928L3.87295,25.77928L3.86272,25.79519L3.84466,25.82382L3.83578,25.8382L3.82699,25.85261L3.81826,25.86707L3.80965,25.88157L3.80113,25.8961L3.79267,25.91066L3.78433,25.92524L3.77608,25.93989L3.76793,25.95454L3.75986,25.96922L3.75188,25.98389L3.74402,25.9986L3.72858,26.02802L3.72106,26.04273L3.71362,26.0574L3.70631,26.07205L3.69914,26.08661C3.53297,26.42625 3.43243,26.79694 3.40582,27.17901L3.40468,27.19637L3.40368,27.21283C3.44348,27.8287 3.70588,28.41133 4.14448,28.85046C4.62281,29.32937 5.27153,29.5984 5.94799,29.5984L28.57006,29.5984L24.5394,20.64062zM28.57006,3.40148L5.94799,3.40148C5.27153,3.40148 4.62281,3.6705 4.14448,4.14942C3.66615,4.62834 3.39745,5.27787 3.39745,5.95514L3.39745,21.75846C4.06766,21.40583 4.79834,21.17448 5.55551,21.07858L5.56939,21.07683L5.58878,21.07445L5.60374,21.07267C5.61945,21.0708 5.63517,21.06899 5.65094,21.06724L5.66647,21.06553L5.68592,21.06345L5.7007,21.06191L5.74694,21.0573L5.74694,21.0573L5.76383,21.0557L5.78333,21.05389L5.80284,21.05217L5.8203,21.0507L5.84546,21.04862L5.86145,21.04735L5.88099,21.04587L5.90055,21.04443L5.91753,21.04325L5.94041,21.04172L5.97888,21.03933L6.0181,21.03713L6.03722,21.03617L6.06124,21.03502L6.07701,21.0343L6.09664,21.03349L6.1163,21.03273L6.13481,21.03207L6.15823,21.03129L6.17533,21.03081L6.19502,21.03029L6.2147,21.02981L6.2554,21.02906L6.27383,21.02882L20.19717,21.02833C20.4659,21.02833 20.70964,20.87058 20.82003,20.62531L28.57006,3.40148z" id="logo" class=""/>
            
        
    </g></svg>